<svg xmlns="http://www.w3.org/2000/svg" version="1.1" xmlns:xlink="http://www.w3.org/1999/xlink" width="272.77279349795447" height="200" viewBox="1.1200000047683716 18.459999084472656 66.23999786376953 45.900001525878906"><path d="M19.76 26.36L19.76 26.36Q19.84 26.40 19.68 26.72L19.68 26.72L17.28 28.72L13.08 31.28Q12.88 32 12.76 32.38Q12.64 32.76 12.36 33.28L12.36 33.28Q12.36 33.56 12.24 34.16Q12.12 34.76 12.12 35.12L12.12 35.12Q11.60 36.24 11.28 39Q10.96 41.76 10.16 42.92L10.16 42.92Q10.08 42.92 9.96 42.64L9.96 42.64Q9.96 41.84 10.28 40.14Q10.60 38.44 10.64 37.96L10.64 37.96Q10.96 36.80 11.28 35.70Q11.60 34.60 11.92 33.52Q12.24 32.44 12.32 31.60L12.32 31.60Q12 31.48 11.72 31.48L11.72 31.48Q11.20 31.48 10.48 31.92L10.48 31.92Q8.84 32.92 8.28 32.92L8.28 32.92Q7.56 33.20 6.60 33.34Q5.64 33.48 4.84 33.48L4.84 33.48L3.56 36.36Q3.68 36.56 3.74 36.60Q3.80 36.64 3.84 36.64L3.84 36.64Q3.72 36.84 3.60 37L3.60 37Q3.36 37.32 3.08 37.40L3.08 37.40Q3 37.68 2.64 38.18Q2.28 38.68 2.16 39.04L2.16 39.04Q1.92 39.68 1.48 39.68L1.48 39.68Q1.28 39.56 1.22 39.42Q1.16 39.28 1.12 39.20L1.12 39.20L2.96 35.48L3.92 33.40Q3.40 33.16 2.92 32.88L2.92 32.88Q2.80 32.64 2.92 32.38Q3.04 32.12 3.12 31.80Q3.20 31.48 3.68 31.48L3.68 31.48Q4.12 31.56 4.60 31.64L4.60 31.64Q4.80 31.64 4.92 31.52L4.92 31.52L7.72 27.32L8.20 26.96L10.72 22.76Q10.96 22.36 11.42 21.90Q11.88 21.44 12.32 21.04L12.32 21.04Q12.32 20.88 13.44 19.68L13.44 19.68Q13.80 19.28 14.60 18.48L14.60 18.48Q14.88 18.44 14.92 18.48L14.92 18.48L15.28 19.80L15.36 20.96Q15.36 21.60 15 22.08L15 22.08Q14.68 24.12 14.36 26.12L14.36 26.12Q13.88 27.56 13.60 29L13.60 29Q13.60 29.16 13.88 29.32L13.88 29.32L15.72 28.64L19.40 26.36Q19.56 26.36 19.76 26.36ZM14.16 20.40L14.16 20.40L12.80 21.64Q12.60 22.04 11.88 22.84Q11.16 23.64 11 24.20L11 24.20Q10.68 24.52 10.32 25.08L10.32 25.08Q9.80 25.92 9.64 26.12Q9.48 26.32 9.32 26.60Q9.16 26.88 9.12 27.16L9.12 27.16L6.96 30.16L6.28 31.48Q6.36 31.52 6.52 31.52L6.52 31.52L8.68 31.20L12.68 29.96Q14.16 25.32 14.16 20.40ZM32.68 22L32.68 22Q32.68 22.52 32.44 23.42Q32.20 24.32 32.16 24.44Q32.12 24.56 31.36 26.88Q30.60 29.20 29.76 30.36L29.76 30.36Q29.72 30.40 29.56 30.76Q29.40 31.12 29.24 31.52L29.24 31.52Q29.08 31.52 28.98 31.60Q28.88 31.68 28.84 31.72L28.84 31.72Q26.96 34.60 23.96 37.12L23.96 37.12L23.88 38.68Q23.88 39.32 23.96 39.82Q24.04 40.32 24.32 40.68L24.32 40.68Q24.32 40.72 24.58 41.02Q24.84 41.32 24.84 41.56L24.84 41.56Q24.40 41.72 24.26 41.94Q24.12 42.16 23.96 42.20L23.96 42.20Q23.44 42.20 23.24 41.88L23.24 41.88Q22.60 41.44 22.44 40.28L22.44 40.28Q22.36 39.32 22.28 38.36L22.28 38.36L21.40 38.80Q20.96 39.24 20.08 39.84L20.08 39.84Q17.92 41.32 17.64 41.56L17.64 41.56L16.12 42.12Q16.08 42.04 15.92 41.88Q15.76 41.72 15.60 41.56L15.60 41.56Q15.40 41.04 15.40 40.60L15.40 40.60Q15.40 39.88 15.82 39.04Q16.24 38.20 16.64 37.40L16.64 37.40Q17.48 35.88 18.96 34.40L18.96 34.40Q20.16 33.20 21.96 32L21.96 32L22.20 32.04Q22.40 31.92 22.52 31.88L22.52 31.88Q22.92 31.72 23.24 31.72L23.24 31.72Q23.80 31.60 24.32 31.92L24.32 31.92Q24.68 32.24 25.04 32.56L25.04 32.56L26.56 28.88L28 25.64Q28.44 24.80 28.66 24.32Q28.88 23.84 29 23.32L29 23.32Q29.12 23.16 29.92 21.84L29.92 21.84Q30.44 20.96 31 20.56L31 20.56Q31.32 20.32 31.68 20.06Q32.04 19.80 32.32 19.96L32.32 19.96L32.40 20.84Q32.68 21.40 32.68 22ZM31.56 23.04L31.56 23.04L31.56 22.56Q31.56 22.28 31.48 21.80L31.48 21.80Q31.48 21.64 31.48 21.44L31.48 21.44Q31.40 21.40 31.16 21.44L31.16 21.44L29.84 23.80Q29.52 24.56 29.44 24.76L29.44 24.76Q29.12 25.48 29.04 25.76L29.04 25.76L27.84 28.52L24.68 35.44L24.88 35.44Q26.28 34.24 27.32 32.96L27.32 32.96Q28.24 31.84 29.24 30.28L29.24 30.28Q30.32 28.20 30.84 26.76L30.84 26.76Q31.56 24.76 31.56 23.04ZM23.36 34.12L23.36 34.12Q23.36 33.84 23.04 33.76L23.04 33.76L21.68 33.44Q21.20 33.72 20.72 33.96L20.72 33.96Q19.84 34.52 19.36 35.36L19.36 35.36Q18.84 35.72 18.26 36.46Q17.68 37.20 17.16 37.84L17.16 37.84L16.84 39.84L16.92 40.12Q17.68 40.12 19.10 39.24Q20.52 38.36 21.52 37.40L21.52 37.40Q21.56 37.28 21.76 37.26Q21.96 37.24 21.96 37.12L21.96 37.12L22.84 35.56Q22.92 35.28 23.14 34.82Q23.36 34.36 23.36 34.12ZM36.16 27.96L36.16 27.96Q35.84 28.68 35.04 28.68L35.04 28.68L33.36 26.92L33.36 26.68L34.16 25.64L34.68 25.60L34.96 26.20Q35.64 26.40 35.92 26.72Q36.20 27.04 36.20 27.52L36.20 27.52Q36.20 27.80 36.16 27.96ZM31.40 40.68L33 40.16Q32.48 41.04 31.48 41.48L31.48 41.48Q31 41.68 29.48 42.04L29.48 42.04L29.04 42.04Q28.88 41.96 28.68 41.76L28.68 41.76Q28.64 41.72 28.04 41L28.04 41Q27.96 40.68 27.92 40.38Q27.88 40.08 27.88 39.84L27.88 39.84Q27.88 38.44 28.80 36.68L28.80 36.68Q29.60 35.28 30.40 33.88L30.40 33.88Q30.68 33.80 30.92 33.56Q31.16 33.32 31.32 33.24L31.32 33.24L31.52 33.96L30.36 35.76Q30.12 36 30.12 36.60L30.12 36.60Q29.52 37.68 29.52 38.88L29.52 38.88Q29.52 39.52 29.60 39.84L29.60 39.84Q29.84 40.44 30.12 40.56L30.12 40.56L31.40 40.68ZM41.48 30.48L48.56 29.52Q48.20 30.04 47.46 30.28Q46.72 30.52 45.84 30.52L45.84 30.52Q44.84 30.88 42.92 31.22Q41 31.56 40.24 31.80L40.24 31.80L40.20 32.24L39.72 32.88Q39.72 33.20 39.46 33.56Q39.20 33.92 39.08 34.12L39.08 34.12Q38.48 35.12 37.88 35.84L37.88 35.84Q37.16 36.72 36.40 37.32L36.40 37.32Q36.20 37.52 36.20 37.96L36.20 37.96Q36.48 39.44 36.88 40.06Q37.28 40.68 37.88 40.96L37.88 40.96L40.24 40.92Q39.80 41.12 39.26 41.40Q38.72 41.68 38.24 41.88L38.24 41.88L37.36 42Q35.96 42 35.16 40.96L35.16 40.96L34.60 39.04Q34.48 38.88 34.44 38.76Q34.40 38.64 34.40 38.56L34.40 38.56Q34.92 38.04 35.10 36.76Q35.28 35.48 35.52 33.92L35.52 33.92L35.68 33.80L36.16 32.72L36.08 32.56L34.76 32.56L34.64 32.36Q35.24 31.20 36.56 31.20L36.56 31.20Q37.08 30.24 38.88 26.44L38.88 26.44Q39.56 25 40.24 23.72L40.24 23.72L42.40 22.72Q42.64 23.36 42.74 23.86Q42.84 24.36 42.84 25L42.84 25Q42.84 25.60 42.76 25.92L42.76 25.92Q42.76 26.68 42.44 27.60L42.44 27.60Q41.52 30.28 41.48 30.48L41.48 30.48ZM41.28 28.28L41.52 25.08L40.08 26.76L38.48 30.60Q38.56 30.80 38.72 30.76L38.72 30.76L40.24 30.36L40.68 29.88L41.28 28.28ZM38.60 33.88L39.52 32.20L37.84 32.44Q37.36 33.60 36.88 34.76L36.88 34.76Q36.88 34.88 36.74 35.44Q36.60 36 36.60 36.32L36.60 36.32L36.88 36.12L38.60 33.88ZM52.80 45.12L52.80 45.12Q52.88 45.44 52.88 45.64L52.88 45.64Q52.88 46.08 52.64 46.08L52.64 46.08Q52.12 46.20 51.92 46.24L51.92 46.24L51.56 46.04Q50.08 46.04 49.36 46.12Q48.64 46.20 48.16 46.56L48.16 46.56Q48.16 46.96 47.68 47.12L47.68 47.12L46.72 49.64Q46.68 49.68 46.48 49.96L46.48 49.96L43.64 55.52L42.12 57.44Q42.12 57.88 42.04 57.96L42.04 57.96L40.64 60.80L38.64 63.68L36.56 64.36Q36.24 64.16 36.08 63.52Q35.92 62.88 35.84 62.48L35.84 62.48Q35.72 61.28 35.70 60.98Q35.68 60.68 35.68 59.84L35.68 59.84Q35.68 57.72 36.10 55.80Q36.52 53.88 37.52 52.20L37.52 52.20Q37.56 51.96 37.94 51.66Q38.32 51.36 38.40 51.12L38.40 51.12L40.92 49.16Q41.40 49.08 42.24 48.42Q43.08 47.76 43.64 47.56L43.64 47.56Q45.36 46.88 47.08 46.20L47.08 46.20L49.88 38.32L49.80 38.16Q48.56 39.16 47.36 40.12L47.36 40.12Q45.84 41.28 44.52 41.72L44.52 41.72Q44.08 41.72 43.70 41.70Q43.32 41.68 43.08 41.48L43.08 41.48Q43.08 40.72 43.40 39.88L43.40 39.88Q43.60 39.32 44.12 38.44L44.12 38.44L44.44 38.16Q45.12 36.84 45.80 35.48L45.80 35.48Q46.64 34.08 47.84 33.60L47.84 33.60Q48.28 33.80 48.32 33.96L48.32 33.96L46.92 36Q46.68 36.32 46.48 36.60L46.48 36.60Q46.40 36.84 45.80 38.24L45.80 38.24Q45.36 39.24 45.36 39.92L45.36 39.92Q45.36 40.24 45.48 40.56L45.48 40.56Q47.04 39.68 47.76 39.16L47.76 39.16Q48.92 38.28 49.64 37.08L49.64 37.08Q49.88 36.96 50.08 36.70Q50.28 36.44 50.48 36.12L50.48 36.12Q50.88 35.76 51.12 35.60L51.12 35.60Q51.56 35.24 51.92 35.44L51.92 35.44Q51.92 37.20 51.16 39.40L51.16 39.40Q49.96 42.44 48.76 45.52L48.76 45.52Q50.28 45.20 51.80 44.88L51.80 44.88Q52.32 44.88 52.80 45.12ZM43.96 52.32L46.32 47.20L42.76 48.48L41.12 49.72L40.92 49.72L38.24 52.20Q37.88 52.48 37.60 53.24L37.60 53.24Q36.88 55.32 36.72 55.52L36.72 55.52Q36.52 56.80 36.48 57.82Q36.44 58.84 36.44 60.48L36.44 60.48L36.44 61.16Q36.64 62.04 36.78 62.58Q36.92 63.12 37.32 63.44L37.32 63.44L38.04 63.32L39.20 61.16Q39.44 60.96 39.48 60.84L39.48 60.84Q40.08 59.72 40.36 59.20L40.36 59.20Q40.92 58.16 41.36 57.64L41.36 57.64Q41.60 56.76 41.74 56.14Q41.88 55.52 42.20 55.08L42.20 55.08L42.48 54.40L43.96 52.32ZM67.36 38.44L67.36 38.44Q67.20 38.60 66.72 38.92Q66.24 39.24 65.96 39.44L65.96 39.44Q65.68 39.52 64 40.24L64 40.24Q62.80 40.76 61.84 40.76L61.84 40.76Q61.68 40.76 61.20 40.68L61.20 40.68L60.96 40.36Q60.64 39.96 60.64 39.32L60.64 39.32Q60.68 38.72 60.68 38.48L60.68 38.48Q60.68 38.32 60.60 38.08L60.60 38.08Q59.68 38.92 59.24 39.32Q58.80 39.72 58.28 40.36L58.28 40.36Q57.56 40.88 56.84 41.44L56.84 41.44Q55.96 42.04 55.12 42.04L55.12 42.04L54.68 41.80Q54.36 41.20 54.36 40.40L54.36 40.40Q54.36 39.64 54.56 38.82Q54.76 38 54.96 37.20L54.96 37.20Q55.04 37.08 55.12 36.92L55.12 36.92Q55.56 36.08 56 35.24L56 35.24Q56.52 34.40 57.16 33.80L57.16 33.80Q57.32 33.20 57.88 32.60L57.88 32.60Q58.20 32.28 59.04 31.60L59.04 31.60Q59.76 31.20 60.48 30.92Q61.20 30.64 61.92 30.64L61.92 30.64Q62.24 30.64 62.40 30.68L62.40 30.68Q63.44 30.92 63.84 31.76L63.84 31.76Q64.24 32.28 64.24 33L64.24 33Q64.24 33.88 63.72 34.60L63.72 34.60L63.28 34.76Q63.04 35.04 62.64 35.80Q62.24 36.56 61.88 37.52L61.88 37.52L61.80 38.40Q61.80 39.12 62 39.44L62 39.44Q62.52 39.72 63.08 39.72L63.08 39.72Q63.80 39.72 65.26 39.10Q66.72 38.48 67.36 38.44ZM63 33.72L63 33.72Q63 33.12 62.36 32.32L62.36 32.32Q62.28 32.20 62 31.96L62 31.96Q61.56 31.68 61.04 31.68L61.04 31.68Q60.52 31.68 59.84 31.98Q59.16 32.28 58.84 32.44L58.84 32.44Q58.32 33.12 57.78 33.82Q57.24 34.52 56.92 35.28L56.92 35.28Q56.76 35.48 56.56 36.02Q56.36 36.56 56.20 36.68L56.20 36.68Q56.20 37.12 55.90 37.68Q55.60 38.24 55.60 38.60L55.60 38.60Q55.40 39.16 55.40 39.92L55.40 39.92Q55.40 40.60 55.56 41.04L55.56 41.04L56.88 40.88Q57.08 40.64 59.04 38.96L59.04 38.96Q60.44 37.72 60.96 36.68L60.96 36.68L61.44 35.72Q61.72 35.24 62.36 34.56Q63 33.88 63 33.72Z" fill="black"></path></svg>